<svg xmlns="http://www.w3.org/2000/svg" width="265" height="265" viewBox="0 0 265 265">
<g>
<path d="M 116.43 264.02 C85.59,259.63 59.61,246.72 37.96,225.00 C20.52,207.51 8.42,185.10 2.86,160.00 C-0.48,144.93 -0.48,120.10 2.85,105.00 C14.23,53.48 53.48,14.23 105.00,2.85 C118.85,-0.21 144.87,-0.44 157.95,2.39 C184.98,8.23 207.28,20.21 226.04,38.96 C244.79,57.72 256.77,80.02 262.61,107.05 C265.17,118.90 265.17,146.10 262.61,157.95 C256.77,184.98 244.79,207.28 226.04,226.04 C207.68,244.40 186.04,256.22 160.00,262.12 C150.27,264.32 125.99,265.39 116.43,264.02 ZM 117.63 254.87 C143.18,258.15 171.89,252.43 193.50,239.77 C223.09,222.43 244.18,194.35 253.12,160.40 C255.21,152.45 255.46,149.37 255.42,131.50 C255.37,113.23 255.15,110.68 252.80,102.00 C235.81,39.29 177.42,0.88 113.66,10.50 C84.61,14.87 56.43,30.52 38.62,52.15 C21.61,72.81 12.81,93.88 9.87,121.02 C5.57,160.63 24.68,204.63 56.99,229.49 C74.65,243.08 96.25,252.12 117.63,254.87 ZM 201.33 206.25 C201.08,206.66 195.05,207.00 187.93,207.00 L 174.97 207.00 L 172.42 201.25 C171.01,198.09 167.81,190.77 165.30,185.00 C162.80,179.23 160.30,173.94 159.75,173.25 C159.01,172.32 152.99,172.00 135.94,172.00 C123.39,172.00 112.91,171.66 112.66,171.25 C112.41,170.84 114.47,165.44 117.23,159.25 L 122.25 148.00 L 134.57 148.00 C141.34,148.00 147.09,147.66 147.35,147.24 C147.61,146.81 146.37,143.33 144.60,139.49 C142.82,135.64 135.80,119.90 129.01,104.50 C122.21,89.10 116.22,75.94 115.70,75.25 C115.16,74.53 112.53,74.00 109.50,74.00 C103.51,74.00 101.69,72.58 102.18,68.31 L 102.50 65.50 L 137.94 64.95 L 140.34 69.73 C141.66,72.35 148.18,86.65 154.82,101.50 C161.47,116.35 174.75,145.82 184.34,167.00 C193.93,188.18 201.58,205.84 201.33,206.25 ZM 206.00 136.73 C206.00,172.45 206.02,185.55 204.02,185.87 C202.84,186.05 200.96,181.83 197.97,175.20 C195.07,168.76 189.84,157.30 186.35,149.73 L 180.00 135.96 L 180.00 65.00 L 204.69 65.00 L 205.35 77.16 C205.71,83.84 206.00,110.65 206.00,136.73 ZM 120.68 130.00 L 116.50 138.50 L 86.72 138.76 L 56.94 139.03 L 54.47 136.56 C51.48,133.57 51.41,132.59 54.00,130.00 C55.86,128.14 57.33,128.00 74.85,128.00 C91.83,128.00 93.85,127.82 95.35,126.17 C97.43,123.87 97.47,120.61 95.43,118.57 C94.17,117.31 91.39,117.00 81.43,117.00 C70.33,117.00 68.79,116.79 67.00,115.00 C65.90,113.90 65.00,112.16 65.00,111.12 C65.00,107.13 67.52,106.51 84.14,106.36 C92.84,106.29 101.11,105.94 102.52,105.58 C106.04,104.70 107.56,100.51 105.50,97.37 C104.00,95.07 103.54,95.00 90.53,95.00 C77.80,95.00 77.03,94.89 75.56,92.78 C73.59,89.97 73.59,88.55 75.57,86.57 C76.88,85.27 80.01,85.00 93.97,85.00 L 110.80 85.00 L 111.82 87.75 C112.38,89.26 115.57,96.74 118.92,104.37 C122.26,112.00 124.97,118.97 124.93,119.87 C124.89,120.77 122.98,125.32 120.68,130.00 ZM 84.27 207.09 C81.12,208.29 60.29,208.27 59.54,207.07 C59.23,206.56 64.89,193.08 72.13,177.12 L 85.30 148.11 L 98.40 147.80 C105.60,147.64 111.68,147.60 111.89,147.73 C112.11,147.85 107.55,158.65 101.75,171.73 C95.96,184.80 90.20,197.90 88.95,200.84 C87.46,204.34 85.85,206.49 84.27,207.09 ZM 39.41 138.92 C37.43,141.28 36.00,142.00 33.33,142.00 C28.69,142.00 24.00,137.48 24.00,133.00 C24.00,128.70 28.70,124.00 33.00,124.00 C35.15,124.00 37.08,124.93 39.08,126.92 C42.80,130.65 42.92,134.76 39.41,138.92 ZM 87.92 75.41 C83.96,78.74 80.80,78.69 76.92,75.22 C70.58,69.56 74.15,60.00 82.60,60.00 C90.67,60.00 94.17,70.15 87.92,75.41 ZM 60.37 93.93 C58.92,95.07 57.32,96.00 56.82,96.00 C55.17,96.00 51.00,91.13 51.00,89.20 C51.00,84.63 58.15,82.30 61.35,85.83 C63.75,88.48 63.38,91.56 60.37,93.93 ZM 52.44 114.78 C51.45,116.20 49.85,117.00 48.00,117.00 C44.98,117.00 42.00,113.98 42.00,110.93 C42.00,106.60 49.26,104.42 52.35,107.83 C54.41,110.11 54.44,111.93 52.44,114.78 Z" fill="rgba(1,1,1,1)"/>
<path d="M 205.85 171.03 C205.69,183.76 205.40,190.00 204.97,190.00 C204.40,190.00 203.69,189.21 203.38,188.25 C202.60,185.78 193.85,165.99 186.35,149.73 C189.84,157.30 195.07,168.76 197.97,175.20 C200.96,181.83 202.84,186.05 204.02,185.87 C205.16,185.68 205.65,181.35 205.85,171.03 Z" fill="rgba(97,97,97,1)"/>
<path d="M 117.63 254.87 C96.25,252.12 74.65,243.08 56.99,229.49 C24.68,204.63 5.57,160.63 9.87,121.02 C12.81,93.88 21.61,72.81 38.62,52.15 C56.43,30.52 84.61,14.87 113.66,10.50 C177.42,0.88 235.81,39.29 252.80,102.00 C255.15,110.68 255.37,113.23 255.42,131.50 C255.46,149.37 255.21,152.45 253.12,160.40 C244.18,194.35 223.09,222.43 193.50,239.77 C171.89,252.43 143.18,258.15 117.63,254.87 ZM 84.27 207.09 C85.85,206.49 87.46,204.34 88.95,200.84 C90.20,197.90 95.96,184.80 101.75,171.73 C107.55,158.65 112.11,147.85 111.89,147.73 C111.68,147.60 105.60,147.64 98.40,147.80 L 85.30 148.11 L 72.13 177.12 C64.89,193.08 59.23,206.56 59.54,207.07 C60.29,208.27 81.12,208.29 84.27,207.09 ZM 201.33 206.25 C201.58,205.84 193.93,188.18 184.34,167.00 C174.75,145.82 161.47,116.35 154.82,101.50 C148.18,86.65 141.66,72.35 140.34,69.73 L 137.94 64.95 L 120.22 65.23 L 102.50 65.50 L 102.18 68.31 C101.69,72.58 103.51,74.00 109.50,74.00 C112.53,74.00 115.16,74.53 115.70,75.25 C116.22,75.94 122.21,89.10 129.01,104.50 C135.80,119.90 142.82,135.64 144.60,139.49 C146.37,143.33 147.61,146.81 147.35,147.24 C147.09,147.66 141.34,148.00 134.57,148.00 L 122.25 148.00 L 117.23 159.25 C114.47,165.44 112.41,170.84 112.66,171.25 C112.91,171.66 123.39,172.00 135.94,172.00 C152.99,172.00 159.01,172.32 159.75,173.25 C160.30,173.94 162.80,179.23 165.30,185.00 C167.81,190.77 171.01,198.09 172.42,201.25 L 174.97 207.00 L 187.93 207.00 C195.05,207.00 201.08,206.66 201.33,206.25 ZM 206.00 139.66 C206.00,111.97 205.71,83.84 205.35,77.16 L 204.69 65.00 L 192.35 65.00 L 180.00 65.00 L 180.00 100.48 L 180.00 135.96 L 186.35 149.73 C193.85,165.99 202.60,185.78 203.38,188.25 C203.69,189.21 204.40,190.00 204.97,190.00 C205.66,190.00 206.00,173.57 206.00,139.66 ZM 39.41 138.92 C42.92,134.76 42.80,130.65 39.08,126.92 C37.08,124.93 35.15,124.00 33.00,124.00 C28.70,124.00 24.00,128.70 24.00,133.00 C24.00,137.48 28.69,142.00 33.33,142.00 C36.00,142.00 37.43,141.28 39.41,138.92 ZM 120.68 130.00 C122.98,125.32 124.89,120.77 124.93,119.87 C124.97,118.97 122.26,112.00 118.92,104.37 C115.57,96.74 112.38,89.26 111.82,87.75 L 110.80 85.00 L 93.97 85.00 C80.01,85.00 76.88,85.27 75.57,86.57 C73.59,88.55 73.59,89.97 75.56,92.78 C77.03,94.89 77.80,95.00 90.53,95.00 C103.54,95.00 104.00,95.07 105.50,97.37 C107.56,100.51 106.04,104.70 102.52,105.58 C101.11,105.94 92.84,106.29 84.14,106.36 C67.52,106.51 65.00,107.13 65.00,111.12 C65.00,112.16 65.90,113.90 67.00,115.00 C68.79,116.79 70.33,117.00 81.43,117.00 C91.39,117.00 94.17,117.31 95.43,118.57 C97.47,120.61 97.43,123.87 95.35,126.17 C93.85,127.82 91.83,128.00 74.85,128.00 C57.33,128.00 55.86,128.14 54.00,130.00 C51.41,132.59 51.48,133.57 54.47,136.56 L 56.94 139.03 L 86.72 138.76 L 116.50 138.50 L 120.68 130.00 ZM 52.44 114.78 C54.44,111.93 54.41,110.11 52.35,107.83 C49.26,104.42 42.00,106.60 42.00,110.93 C42.00,113.98 44.98,117.00 48.00,117.00 C49.85,117.00 51.45,116.20 52.44,114.78 ZM 60.37 93.93 C63.38,91.56 63.75,88.48 61.35,85.83 C58.15,82.30 51.00,84.63 51.00,89.20 C51.00,91.13 55.17,96.00 56.82,96.00 C57.32,96.00 58.92,95.07 60.37,93.93 ZM 87.92 75.41 C94.17,70.15 90.67,60.00 82.60,60.00 C74.15,60.00 70.58,69.56 76.92,75.22 C80.80,78.69 83.96,78.74 87.92,75.41 Z" fill="rgba(254,254,254,1)"/>
</g>
</svg>